<svg width="20" height="29" viewBox="0 0 20 29" fill="none" xmlns="http://www.w3.org/2000/svg">
<path d="M10 0C4.47143 0 0 4.5385 0 10.15C0 17.7625 10 29 10 29C10 29 20 17.7625 20 10.15C20 4.5385 15.5286 0 10 0ZM2.85714 10.15C2.85714 6.148 6.05714 2.9 10 2.9C13.9429 2.9 17.1429 6.148 17.1429 10.15C17.1429 14.326 13.0286 20.5755 10 24.476C7.02857 20.6045 2.85714 14.2825 2.85714 10.15Z" fill="#323232"/>
<path d="M10.5 13C12.433 13 14 11.433 14 9.5C14 7.567 12.433 6 10.5 6C8.567 6 7 7.567 7 9.5C7 11.433 8.567 13 10.5 13Z" fill="#323232"/>
</svg>
