<svg width="26" height="26" viewBox="0 0 26 26" fill="none" xmlns="http://www.w3.org/2000/svg">
<path d="M24.5556 26C25.35 26 26 25.35 26 24.5556V19.5144C26 18.72 25.35 18.07 24.5556 18.07C22.7644 18.07 21.0167 17.7811 19.3989 17.2467C19.2544 17.1889 19.0956 17.1744 18.9511 17.1744C18.5756 17.1744 18.2144 17.3189 17.9256 17.5933L14.7478 20.7711C10.66 18.6767 7.30889 15.34 5.22889 11.2522L8.40667 8.07444C8.81111 7.67 8.92667 7.10667 8.76778 6.60111C8.23333 4.98333 7.94444 3.25 7.94444 1.44444C7.94444 0.65 7.29444 0 6.5 0H1.44444C0.65 0 0 0.65 0 1.44444C0 15.0078 10.9922 26 24.5556 26ZM19.3556 20.2511C20.5833 20.5978 21.84 20.8144 23.1111 20.9011V23.0533C21.2044 22.9233 19.37 22.5478 17.6222 21.97L19.3556 20.2511ZM2.93222 2.88889H5.09889C5.2 4.17444 5.41667 5.43111 5.76333 6.63L4.03 8.36333C3.43778 6.63 3.06222 4.79556 2.93222 2.88889Z" fill="#323232"/>
</svg>
