<svg width="18" height="18" viewBox="0 0 18 18" fill="none" xmlns="http://www.w3.org/2000/svg">
<path d="M12.4963 11.5H11.7063L11.4263 11.23C12.4063 10.09 12.9963 8.61 12.9963 7C12.9963 3.41 10.0863 0.5 6.49628 0.5C2.90628 0.5 -0.00372314 3.41 -0.00372314 7C-0.00372314 10.59 2.90628 13.5 6.49628 13.5C8.10628 13.5 9.58628 12.91 10.7263 11.93L10.9963 12.21V13L15.9963 17.99L17.4863 16.5L12.4963 11.5ZM6.49628 11.5C4.00628 11.5 1.99628 9.49 1.99628 7C1.99628 4.51 4.00628 2.5 6.49628 2.5C8.98628 2.5 10.9963 4.51 10.9963 7C10.9963 9.49 8.98628 11.5 6.49628 11.5Z" fill="#323232"/>
</svg>
