<svg width="20" height="21" viewBox="0 0 20 21" fill="none" xmlns="http://www.w3.org/2000/svg">
<path d="M5.99255 16.5C4.89255 16.5 4.00255 17.4 4.00255 18.5C4.00255 19.6 4.89255 20.5 5.99255 20.5C7.09255 20.5 7.99255 19.6 7.99255 18.5C7.99255 17.4 7.09255 16.5 5.99255 16.5ZM15.9926 16.5C14.8926 16.5 14.0026 17.4 14.0026 18.5C14.0026 19.6 14.8926 20.5 15.9926 20.5C17.0926 20.5 17.9926 19.6 17.9926 18.5C17.9926 17.4 17.0926 16.5 15.9926 16.5ZM14.5426 11.5C15.2926 11.5 15.9526 11.09 16.2926 10.47L19.8726 3.98C20.2426 3.32 19.7626 2.5 19.0026 2.5H4.20255L3.26255 0.5H-0.00744629V2.5H1.99255L5.59255 10.09L4.24255 12.53C3.51255 13.87 4.47255 15.5 5.99255 15.5H17.9926V13.5H5.99255L7.09255 11.5H14.5426ZM5.15255 4.5H17.3026L14.5426 9.5H7.52255L5.15255 4.5Z" fill="black"/>
</svg>
