<svg width="138" height="28" viewBox="0 0 138 28" fill="none" xmlns="http://www.w3.org/2000/svg">
<path d="M9.14369 27.0353H3.99213V14.0558H0.482788V9.82996H3.99199V6.82296C3.99199 3.25967 5.54412 0.704102 10.6817 0.704102C11.7684 0.704102 13.4743 0.92546 13.4743 0.92546V4.84939H11.6825C9.8568 4.84939 9.14397 5.41066 9.14397 6.96238V9.82996H13.4059L13.0264 14.0558H9.14383L9.14369 27.0353ZM20.9641 9.49225C20.889 9.49225 20.8118 9.49502 20.7354 9.49695C15.9585 9.49695 13.773 13.1285 13.773 18.2836C13.773 24.7776 16.6079 27.3767 20.7727 27.3767C23.1555 27.3767 24.721 26.363 25.6726 24.4714V27.0371H30.5724V9.83175H25.6726V12.4777C24.8956 10.7754 23.2863 9.51243 20.9641 9.49225ZM22.21 13.5578C24.2163 13.5578 25.4205 14.9722 25.4205 17.378L25.4251 19.8352C25.4251 21.4567 24.4305 23.3537 22.21 23.3537C18.7962 23.3537 18.8874 19.6282 18.8874 18.3874C18.8874 14.2135 20.7062 13.5578 22.21 13.5578ZM32.5513 18.4353C32.5513 16.3446 32.4523 9.50344 41.2709 9.50344C44.8109 9.50344 46.2891 10.6411 46.2891 10.6411L45.101 14.3653C45.101 14.3653 43.6248 13.5437 41.7012 13.5437C39.2374 13.5437 37.6654 14.9872 37.6654 17.5271L37.6681 19.3482C37.6681 21.7887 39.1849 23.4178 41.7062 23.4178C43.4587 23.4178 45.0738 22.5885 45.0738 22.5885L46.2589 26.2349C46.2589 26.2349 44.9073 27.3797 41.2957 27.3797C32.8989 27.3797 32.5514 21.2419 32.5514 18.4353H32.5513ZM75.0188 9.49695C79.7958 9.49695 82.0158 13.1285 82.0158 18.2836C82.0158 24.7776 79.1807 27.3767 75.0159 27.3767C72.6331 27.3767 70.8717 26.3632 69.9202 24.4714V27.0371L65.0819 27.0351V1.22724L70.2189 0.774433V12.2446C70.9603 10.2379 73.3968 9.49695 75.019 9.49695H75.0188ZM73.5787 13.5578C71.5724 13.5578 70.2189 14.9722 70.2189 17.378L70.2141 19.8352C70.2111 21.4567 71.1514 23.3537 73.5787 23.3537C76.9924 23.3537 76.9012 19.6282 76.9012 18.3874C76.9012 14.2135 75.0825 13.5578 73.5787 13.5578ZM55.2021 9.51118C49.7841 9.51118 46.9237 12.4968 46.9237 17.8025V18.7882C46.9237 25.6745 50.9405 27.4474 55.7294 27.4474C60.3841 27.4474 62.4911 26.1316 62.4911 26.1316L61.5298 22.6274C61.5298 22.6274 59.0514 23.6932 56.3453 23.6932C53.5399 23.6932 52.3334 22.9705 52.0241 20.2457H62.9017V17.4345C62.9017 11.6792 59.6915 9.51104 55.202 9.51104L55.2021 9.51118ZM55.3326 13.02C57.2081 13.02 58.4234 14.1824 58.3567 16.8781H52.0336C52.1432 14.0409 53.4538 13.0202 55.3326 13.0202V13.02ZM92.2586 9.48756C86.6947 9.48756 83.7656 12.6565 83.7656 18.3354C83.7656 26.1272 88.8147 27.3814 92.2679 27.3814C97.3231 27.3814 100.686 24.6307 100.686 18.4061C100.686 11.9275 96.9047 9.48756 92.2586 9.48756ZM92.1886 13.5719C94.6351 13.5719 95.6046 15.4225 95.6046 17.529V19.3401C95.6046 21.8919 94.2481 23.3679 92.1793 23.3679C90.2445 23.3679 88.8847 21.9873 88.8847 19.3401V17.529C88.8847 14.7058 90.5028 13.5719 92.1886 13.5719ZM110.92 9.48756C105.356 9.48756 102.427 12.6565 102.427 18.3354C102.427 26.1272 107.476 27.3814 110.929 27.3814C115.984 27.3814 119.348 24.6307 119.348 18.4061C119.348 11.9275 115.566 9.48756 110.92 9.48756ZM110.85 13.5719C113.296 13.5719 114.266 15.4225 114.266 17.529V19.3401C114.266 21.8919 112.909 23.3679 110.841 23.3679C108.906 23.3679 107.546 21.9873 107.546 19.3401V17.529C107.546 14.7058 109.164 13.5719 110.85 13.5719ZM121.289 27.0353V1.22724L126.441 0.774433V18.0726L131.552 9.82996H136.993L131.661 18.3669L137.198 27.0353H131.742L126.441 18.6184V27.0353H121.289Z" fill="#0F0F10"/>
</svg>
