<svg width="113" height="38" viewBox="0 0 113 38" fill="none" xmlns="http://www.w3.org/2000/svg">
<path d="M14.5477 0.651611H15.5409C18.9892 0.727374 22.3812 2.12899 24.8175 4.61023C23.9179 5.53833 22.9997 6.42854 22.1189 7.35664C20.7508 6.10655 19.1016 5.14057 17.3026 4.79964C14.6414 4.23141 11.7741 4.74281 9.544 6.27701C7.10774 7.88698 5.45858 10.6144 5.10251 13.5313C4.70896 16.4103 5.5148 19.4408 7.37011 21.6758C9.15045 23.854 11.8678 25.2178 14.6789 25.3125C17.3026 25.464 20.0387 24.6495 21.9502 22.7934C23.4494 21.4864 24.1428 19.4977 24.3677 17.5657C21.2568 17.5657 18.1459 17.5846 15.035 17.5657V13.6639H28.1345C28.8092 17.8498 27.8347 22.5661 24.6863 25.5587C22.5874 27.6801 19.6826 28.9302 16.7216 29.1764C13.8543 29.4605 10.8933 28.9112 8.34461 27.5096C5.28991 25.8618 2.85365 23.0775 1.65426 19.8007C0.529835 16.7891 0.511095 13.3798 1.56056 10.3493C2.51632 7.58393 4.35289 5.14057 6.71419 3.4359C8.98179 1.75017 11.7366 0.822078 14.5477 0.651611Z" fill="#0F0F10"/>
<path d="M89.6974 1.63672H93.7079V28.6841C92.3773 28.6841 91.028 28.703 89.6974 28.6651C89.7162 19.6683 89.6974 10.6525 89.6974 1.63672Z" fill="#0F0F10"/>
<path d="M37.0545 11.0123C39.5282 10.5387 42.2081 11.0691 44.2508 12.5654C46.1062 13.8912 47.3993 15.9747 47.7928 18.2476C48.2988 20.8803 47.6616 23.7593 45.975 25.8428C44.1571 28.1724 41.1774 29.4225 38.2726 29.2331C35.6115 29.0816 33.0253 27.7368 31.4511 25.5397C29.6707 23.1153 29.2397 19.7818 30.2142 16.9407C31.1887 13.8912 33.9436 11.5615 37.0545 11.0123ZM37.6167 14.611C36.6047 14.8761 35.6677 15.4633 34.993 16.2967C33.1752 18.4938 33.2877 22.0736 35.2929 24.1192C36.4361 25.2935 38.1602 25.8428 39.7531 25.5208C41.2336 25.2556 42.5267 24.2517 43.2389 22.9259C44.4757 20.672 44.1197 17.5657 42.2269 15.8042C41.0087 14.6678 39.2284 14.1943 37.6167 14.611Z" fill="#0F0F10"/>
<path d="M56.9179 11.0122C59.7477 10.4629 62.8399 11.2584 64.9576 13.2661C68.4058 16.3914 68.7806 22.2441 65.8384 25.8428C64.058 28.1157 61.172 29.3658 58.3234 29.2332C55.6061 29.1575 52.9262 27.7937 51.3145 25.5398C49.4967 23.0585 49.1031 19.6492 50.1338 16.7512C51.1646 13.7965 53.8632 11.5425 56.9179 11.0122ZM57.4801 14.6109C56.4681 14.8761 55.5311 15.4633 54.8564 16.2777C53.0573 18.437 53.1323 21.96 55.0626 24.0245C56.2057 25.2557 57.9861 25.8618 59.6353 25.5208C61.097 25.2367 62.4088 24.2518 63.121 22.9259C64.3391 20.653 63.983 17.5468 62.0715 15.7853C60.8534 14.6488 59.073 14.1942 57.4801 14.6109Z" fill="#0F0F10"/>
<path d="M73.7677 12.1108C75.9228 10.7471 78.7901 10.3683 81.1139 11.5426C81.8448 11.8646 82.4445 12.4139 83.0255 12.9632C83.0442 12.4518 83.0255 11.9214 83.0442 11.3911C84.2998 11.41 85.5554 11.3911 86.8298 11.41V28.1158C86.8111 30.6349 86.1739 33.3055 84.3748 35.1428C82.407 37.1694 79.3898 37.7945 76.6724 37.3778C73.7677 36.9421 71.2377 34.8018 70.1133 32.0933C71.2377 31.544 72.4183 31.1084 73.5803 30.597C74.2362 32.1501 75.5668 33.476 77.2347 33.779C78.9026 34.0821 80.8328 33.6654 81.9198 32.2638C83.0817 30.8243 83.0817 28.8544 83.0255 27.093C82.1634 27.9453 81.1702 28.7029 79.9708 28.987C77.3658 29.7257 74.4985 28.8166 72.4933 27.0361C70.4693 25.2557 69.2699 22.5093 69.3824 19.7818C69.4386 16.6945 71.1627 13.7208 73.7677 12.1108ZM77.647 14.5353C76.5038 14.7247 75.4356 15.3687 74.7047 16.2589C72.9431 18.3802 72.9431 21.7706 74.7234 23.8541C75.7354 25.0852 77.3658 25.7671 78.94 25.5966C80.4205 25.4451 81.7886 24.4981 82.5195 23.1912C83.7564 20.9751 83.5502 17.9635 81.8823 16.0316C80.8516 14.8383 79.2024 14.2511 77.647 14.5353Z" fill="#0F0F10"/>
<path d="M98.5211 13.0769C100.77 10.9556 104.237 10.2358 107.123 11.3533C109.859 12.3951 111.602 15.0278 112.483 17.7364C108.416 19.441 104.368 21.1267 100.301 22.8314C100.864 23.911 101.726 24.896 102.888 25.2937C104.518 25.8809 106.467 25.6725 107.835 24.574C108.379 24.1573 108.81 23.608 109.222 23.0776C110.253 23.7784 111.283 24.4603 112.314 25.1611C110.852 27.3772 108.397 28.9303 105.755 29.1766C102.831 29.5364 99.7205 28.4 97.8277 26.0892C94.7168 22.4526 95.0167 16.3537 98.5211 13.0769ZM100.526 16.581C99.8892 17.5091 99.6268 18.6455 99.6456 19.763C102.363 18.6266 105.08 17.4901 107.798 16.3347C107.348 15.2741 106.261 14.6301 105.155 14.4596C103.375 14.1376 101.52 15.1036 100.526 16.581Z" fill="#0F0F10"/>
</svg>
