<svg width="142" height="35" viewBox="0 0 142 35" fill="none" xmlns="http://www.w3.org/2000/svg">
<path d="M15.2457 0.0353716C13.4191 0.24226 10.6792 1.10165 9.12036 1.96103C4.93184 4.23681 2.09749 7.78575 0.680323 12.5124C0.396889 13.4354 0.0662161 15.9499 0.0819624 17.1276C0.0819624 18.162 0.396889 20.6924 0.585845 21.2972C0.680323 21.5836 0.885026 22.268 1.05824 22.7931C1.34167 23.6844 2.7116 26.4853 2.9478 26.6763C2.99504 26.724 3.24698 27.0423 3.48317 27.4084C4.06579 28.2837 5.59318 29.8433 6.74266 30.7345C7.62446 31.4188 10.1124 32.867 10.4273 32.883C10.506 32.883 10.5218 32.2782 10.4745 31.4825C10.3643 29.716 10.695 27.3129 11.4036 24.862C11.5296 24.4483 11.624 23.9072 11.624 23.6684C11.624 23.4297 11.687 23.1751 11.7657 23.0955C11.8445 23 11.9862 22.5385 12.0649 22.0611C12.1594 21.5836 12.3169 20.8516 12.4271 20.4378C12.5846 19.8171 12.5688 19.5784 12.3484 18.91C12.0334 17.8915 12.0177 16.2364 12.3326 15.4406C13.0727 13.5468 13.8915 12.8307 15.2772 12.8307C16.9463 12.8307 17.7494 14.1038 17.4344 16.2364C17.2927 17.2071 16.8991 18.7349 16.6471 19.2124C16.5841 19.3556 16.4739 19.7535 16.4267 20.0877C16.3637 20.4378 16.2377 20.9311 16.159 21.2017C15.9385 21.8224 16.3637 23.0319 16.9305 23.4934C17.4659 23.9231 18.5839 24.0504 19.6074 23.8117C20.3318 23.6525 20.6309 23.4616 21.3868 22.7295C22.2843 21.8383 22.9614 20.8038 22.9614 20.3105C22.9614 20.1672 23.0401 19.9763 23.1346 19.8808C23.5755 19.4352 23.8117 15.9658 23.481 14.5017C23.1189 12.8943 22.0009 11.3188 20.5522 10.3957C19.1035 9.45677 16.1117 9.18622 14.2694 9.82281C12.9782 10.2684 11.8287 11.0164 11.0887 11.8917C10.4273 12.6715 9.73447 13.9447 9.73447 14.3903C9.73447 14.5494 9.65574 14.7563 9.56126 14.8518C9.46678 14.9473 9.35656 15.552 9.30932 16.2045C9.23059 17.1753 9.29357 17.6209 9.57701 18.5758C9.76596 19.2283 10.1124 19.9922 10.3171 20.2787C10.7422 20.8516 10.7422 21.0744 10.3486 22.6022C10.2384 23.0159 10.0494 23.3979 9.93917 23.4456C8.94715 23.8276 6.93162 21.4245 6.25453 19.0373C6.00259 18.1302 5.98684 14.8995 6.23878 13.9447C6.34901 13.5468 6.53796 13.0057 6.66393 12.7193C6.7899 12.4487 6.90013 12.1782 6.90013 12.1145C6.90013 12.0508 7.21505 11.5097 7.60871 10.9209C9.65574 7.80166 12.9782 6.14655 17.1825 6.14655C18.143 6.14655 19.135 6.21021 19.4027 6.28978C21.5757 6.97411 22.1583 7.19691 23.0086 7.70617C24.662 8.70879 25.8587 10.0774 27.0554 12.3691C27.1342 12.5124 27.2444 12.8943 27.2916 13.2126C27.3546 13.5309 27.4648 13.8333 27.5436 13.881C27.6223 13.9288 27.6853 14.9632 27.6853 16.1886C27.6853 18.4007 27.5278 19.292 26.8665 21.1062C26.1264 23.0955 24.2211 25.2917 22.489 26.1511C21.497 26.6285 19.6389 27.1537 18.8988 27.1537C17.9068 27.1537 15.9543 26.3262 15.4189 25.6578C15.167 25.3554 14.9308 25.4668 14.9308 25.8965C14.9308 26.0556 14.8678 26.3262 14.7733 26.4853C14.6946 26.6285 14.5528 27.0742 14.4741 27.472C14.0175 29.5727 13.3719 31.2756 12.3799 32.867C12.0807 33.3604 12.3326 33.6469 13.1514 33.7583C13.5608 33.8219 14.112 33.9333 14.3639 34.0129C14.9937 34.2198 18.4107 34.1879 19.5602 33.9811C20.5994 33.7901 22.2843 33.3126 23.0401 32.9944C27.7955 31.021 31.4014 27.0105 32.9603 21.9019C33.7949 19.1805 33.8421 16.0136 33.0863 12.8307C32.8343 11.7962 32.7556 11.5575 32.0785 9.96604C31.1023 7.64252 28.8978 4.92113 26.6618 3.25011C24.7407 1.8178 22.8512 0.990243 19.9066 0.27409C19.0878 0.0831152 16.1747 -0.0760301 15.2457 0.0353716ZM57.2412 5.78052C56.6271 5.876 55.6508 6.89453 55.3989 7.69026C55.1312 8.56556 55.3988 9.50451 56.1547 10.2366C57.8238 11.8758 60.7211 10.3321 60.3589 7.97672C60.1385 6.48076 58.7843 5.52588 57.2412 5.78052ZM40.0777 6.71947C39.9359 6.87862 39.936 26.0715 40.0934 26.2943C40.1721 26.4217 40.8492 26.4694 42.1719 26.4535L44.1402 26.4376L44.219 23.2069C44.2819 20.581 44.3449 19.9444 44.5339 19.833C44.6599 19.7535 45.7306 19.6739 46.9116 19.6739C49.494 19.6739 50.5805 19.4829 51.7615 18.8463C53.3046 18.0029 54.2021 16.7934 54.6903 14.8677C54.9894 13.6582 54.9894 12.7829 54.6745 11.5416C54.3911 10.4276 54.2651 10.157 53.588 9.24988C52.7535 8.11995 51.9032 7.49929 50.5175 7.00594C49.7459 6.7513 49.1003 6.70356 44.9275 6.65582C42.3294 6.62399 40.1407 6.65582 40.0777 6.71947ZM48.7224 10.6822C49.7774 11.0164 50.297 11.4938 50.5332 12.3532C50.8324 13.4831 50.612 14.5335 49.9506 15.1701C49.2263 15.8544 48.5807 16.0136 46.4707 16.0136C45.085 16.0136 44.6599 15.9658 44.4709 15.7589C44.2662 15.568 44.219 15.1064 44.219 13.2922C44.219 10.4276 44.2032 10.4435 46.3919 10.4435C47.3367 10.4435 48.25 10.539 48.7224 10.6822ZM76.3415 9.74323C76.3415 10.8413 76.2628 11.8758 76.184 12.0508C76.0738 12.2577 75.8533 12.3532 75.4754 12.3532C75.192 12.3532 74.9243 12.4169 74.8928 12.5124C74.8771 12.5919 74.8771 13.1489 74.9243 13.7378C75.003 14.7881 75.0188 14.8041 75.4912 14.9155C75.7589 14.9632 76.0581 15.0587 76.1525 15.1223C76.2942 15.2019 76.3415 16.4592 76.3415 19.6421C76.3415 23.9231 76.3572 24.0822 76.7036 24.7188C77.428 26.0715 78.5617 26.549 80.8607 26.4853L82.4038 26.4376L82.4511 24.8939L82.4983 23.3342H82.1047C81.5063 23.3342 80.6245 22.8568 80.53 22.4749C80.4828 22.2839 80.4355 20.5969 80.4355 18.7031C80.4355 16.0931 80.4828 15.2178 80.6402 15.0905C80.7505 14.995 81.1914 14.8995 81.6165 14.8677L82.4038 14.82V12.4328L81.5378 12.385C81.0654 12.3532 80.6245 12.2418 80.5615 12.1463C80.4985 12.0349 80.4355 11.0005 80.4355 9.83872V7.738H76.3415V9.74323ZM134.871 7.83349C134.808 7.89715 134.76 8.89976 134.76 10.0615C134.76 12.3214 134.745 12.3532 133.879 12.3532C133.485 12.3532 133.485 12.3691 133.532 13.5786C133.579 14.7881 133.595 14.82 134.005 14.8677C134.225 14.8995 134.493 15.0109 134.571 15.1064C134.666 15.2178 134.76 17.1435 134.808 19.5943C134.855 21.9497 134.934 24.0981 134.997 24.3528C135.186 25.053 136.162 25.9442 137.091 26.2466C138.13 26.5967 140.776 26.6285 141.043 26.2943C141.169 26.1511 141.216 25.5782 141.185 24.7506L141.138 23.4138L140.587 23.3183C139.988 23.2228 139.311 22.9046 139.138 22.634C139.075 22.5385 139.012 20.8038 139.012 18.7827C139.012 14.629 138.917 14.8995 140.287 14.8995C141.185 14.8995 141.264 14.7404 141.185 13.2922L141.138 12.4328L140.114 12.3532L139.091 12.2736L139.012 10.0456L138.933 7.81758L136.949 7.76983C135.863 7.75392 134.934 7.78575 134.871 7.83349ZM68.5471 11.9713C67.7755 12.1782 66.8779 12.7033 66.2796 13.324C65.5552 14.0879 65.3663 14.0402 65.2876 13.0694L65.2403 12.4328H61.3037V26.4376L63.2878 26.4694C65.2403 26.5171 65.2876 26.5012 65.382 26.1511C65.4293 25.9601 65.4765 23.939 65.4765 21.6473C65.4765 17.1117 65.4923 16.9843 66.4213 16.0931C66.8307 15.6953 67.0511 15.6157 67.9329 15.5679L68.9565 15.5043L69.5706 16.1568C70.2949 16.9207 70.2162 16.1886 70.2791 22.7772C70.2949 24.5278 70.3106 26.0715 70.3264 26.2307C70.3579 26.4535 70.6098 26.4853 72.3734 26.4535L74.3732 26.4376V15.2656L73.9165 14.3584C73.1292 12.7829 71.9168 12.0349 70.0587 11.9394C69.3973 11.9235 68.7203 11.9235 68.5471 11.9713ZM88.23 11.9713C86.5294 12.4328 85.7106 12.8943 84.6556 13.9447C83.2384 15.3929 82.5928 17.0798 82.5928 19.3556C82.6085 23.3502 85.0807 26.3103 88.7339 26.6604C91.8516 26.9628 94.2608 26.0397 95.804 23.9549C96.0244 23.6525 96.4968 22.6817 96.4968 22.5067C96.4968 22.443 95.5835 22.3794 94.4813 22.3794H92.4657L91.9934 22.8727C91.4422 23.4456 90.6707 23.8117 89.9621 23.8117C89.2535 23.8117 88.167 23.3024 87.6631 22.7613C87.2852 22.3316 86.7341 21.0903 86.7341 20.6606C86.7341 20.5174 87.8836 20.4696 91.5839 20.4696C94.2451 20.4696 96.4968 20.406 96.607 20.3423C96.8432 20.1832 96.6228 17.6528 96.2764 16.7297C95.5678 14.8041 94.2293 13.1808 92.8751 12.6078C92.4815 12.4487 92.0248 12.2418 91.8674 12.1622C91.5367 11.9872 88.7339 11.844 88.23 11.9713ZM91.3005 15.4565C91.9146 15.8862 92.45 16.9048 92.3713 17.4777C92.324 17.8437 92.2925 17.8437 89.6314 17.8915C86.5609 17.9392 86.5451 17.9233 87.0333 16.7775C87.3797 15.9817 88.0725 15.2656 88.7181 15.0587C89.4582 14.82 90.6549 15.0109 91.3005 15.4565ZM111.535 11.9713C109.708 12.4646 108.433 13.2763 107.441 14.5335C107.047 15.0428 106.732 15.5202 106.732 15.6157C106.732 15.6953 106.622 15.9817 106.48 16.2523C106.338 16.5069 106.134 17.3026 106.023 18.0188C105.472 21.4245 106.984 24.6074 109.818 26.0397L110.905 26.5967H113.188C115.55 26.5967 115.755 26.549 117.203 25.7692C118.258 25.1962 119.99 22.9682 119.723 22.5226C119.66 22.443 118.762 22.3794 117.707 22.3794H115.77L115.377 22.8409C113.802 24.6392 110.857 23.7162 110.228 21.2176C110.133 20.8834 110.133 20.5969 110.212 20.5333C110.291 20.4855 112.542 20.4537 115.235 20.4696C119.077 20.4696 120.116 20.4378 120.132 20.2787C120.274 18.2893 119.329 15.3451 118.148 14.072C117.487 13.3558 116.337 12.5601 115.77 12.4169C115.518 12.3532 115.235 12.2418 115.125 12.1622C114.904 11.9872 112.023 11.844 111.535 11.9713ZM113.991 15.0746C114.7 15.3292 115.518 16.2204 115.644 16.9048C115.833 17.9392 115.849 17.9392 112.92 17.8915C110.291 17.8437 110.275 17.8437 110.228 17.4777C110.165 17.0321 110.716 15.934 111.188 15.5202C111.865 14.9473 113.046 14.7563 113.991 15.0746ZM125.234 11.9713C122.006 12.7511 120.841 13.9128 120.825 16.3318C120.825 18.9418 122.116 20.0399 125.942 20.7243C128.572 21.1858 129.328 21.5996 129.296 22.6022C129.281 23.3183 128.793 23.7798 127.816 23.9867C126.588 24.2573 125.628 23.9549 124.856 23.0796L124.242 22.3794H122.337C120.793 22.3794 120.431 22.4271 120.431 22.6022C120.431 23.0637 121.061 24.2732 121.581 24.8779C122.069 25.4031 122.447 25.6578 123.927 26.3739C124.069 26.4535 124.84 26.5808 125.612 26.6763C127.045 26.8514 129.533 26.6922 130.162 26.3739C130.304 26.3103 130.714 26.1034 131.06 25.9442C131.958 25.5145 132.808 24.5437 133.123 23.6207C133.469 22.5703 133.375 21.1062 132.887 20.0877C132.304 18.8941 130.761 18.0347 128.462 17.6209C125.502 17.0957 125.454 17.0798 124.982 16.6183C124.415 16.0295 124.415 15.8226 124.982 15.186C125.439 14.6767 125.47 14.6608 126.73 14.6608C127.989 14.6608 128.021 14.6767 128.478 15.186C128.73 15.4725 128.934 15.8067 128.934 15.934C128.934 16.125 129.265 16.1727 130.903 16.1727C133.076 16.1727 133.013 16.2204 132.635 15.0905C131.942 13.0853 130.162 12.0668 127.202 11.9554C126.289 11.9235 125.407 11.9235 125.234 11.9713ZM104.291 12.3055C103.598 12.5442 102.638 13.3399 102.339 13.9128C102.04 14.4858 101.772 14.247 101.693 13.2922L101.614 12.4328H97.6778L97.6305 19.1169C97.6148 22.7931 97.6305 25.9601 97.6778 26.167C97.7565 26.5171 97.8037 26.5171 99.6933 26.4853C100.78 26.4694 101.662 26.3739 101.725 26.2784C101.788 26.1989 101.851 24.5119 101.851 22.5385C101.851 19.4193 101.882 18.8623 102.15 18.162C102.701 16.7138 103.882 15.8544 105.362 15.8544C105.771 15.8544 105.945 15.7748 105.992 15.5679C106.102 15.1064 106.118 12.958 106.023 12.4805C105.929 12.0986 105.85 12.0349 105.425 12.0508C105.142 12.0668 104.638 12.1782 104.291 12.3055ZM55.7925 12.5442C55.7453 12.6556 55.7295 15.7908 55.7453 19.5148L55.7925 26.2784L57.6663 26.358C58.8001 26.4057 59.6189 26.3739 59.7448 26.2784C59.9181 26.1511 59.9653 24.7984 59.9653 19.3874C59.981 15.6953 59.9338 12.5919 59.8866 12.5124C59.7291 12.2736 55.8712 12.3055 55.7925 12.5442Z" fill="#0F0F10"/>
</svg>
