<svg width="127" height="29" viewBox="0 0 127 29" fill="none" xmlns="http://www.w3.org/2000/svg">
<path d="M21.1933 28.0953L12.944 27.9428C10.273 27.8897 7.59546 27.9958 4.97695 27.4453C0.99341 26.6229 0.711215 22.5901 0.415895 19.2074C0.00900881 14.4518 0.166513 9.60985 0.934346 4.89396C1.36748 2.24749 3.07378 0.668896 5.71197 0.496445C14.6175 -0.127034 23.5821 -0.0540736 32.468 0.237768C33.4065 0.264299 34.3515 0.410219 35.2768 0.576038C39.8444 1.38523 39.956 5.9552 40.2513 9.8022C40.5466 13.689 40.422 17.5957 39.8576 21.4559C39.4047 24.6529 38.5385 27.3326 34.8831 27.5912C30.3023 27.9295 25.8266 28.2015 21.2327 28.1152C21.2327 28.0953 21.2064 28.0953 21.1933 28.0953ZM16.3435 20.0034C19.7955 18.0003 23.1818 16.0303 26.6141 14.0405C23.1556 12.0374 19.7758 10.0675 16.3435 8.07768V20.0034Z" fill="#0F0F10"/>
<path d="M106.419 24.4606C106.261 25.1106 106.124 25.6213 105.986 26.1652H102.757V0.993652H106.524V10.2796C106.721 10.0276 106.819 9.92143 106.905 9.80867C107.548 8.91324 108.381 8.32955 109.457 8.10403C111.17 7.76576 112.634 8.52853 113.152 10.1934C113.487 11.2281 113.703 12.3358 113.73 13.4169C113.782 16.1961 113.743 18.9686 113.644 21.7477C113.605 22.5967 113.349 23.4656 113.028 24.2616C111.971 26.8882 108.519 27.2861 106.806 25.0111C106.701 24.8718 106.603 24.7192 106.419 24.4606ZM106.603 17.5359V22.1391C106.603 22.8886 106.996 23.3462 107.738 23.5187C108.466 23.6912 109.057 23.4059 109.352 22.7228C109.477 22.4376 109.602 22.1391 109.608 21.8406C109.681 19.0283 109.746 16.216 109.766 13.397C109.766 12.873 109.641 12.3291 109.484 11.8184C109.188 10.8965 108.375 10.6245 107.574 11.1618C106.97 11.573 106.603 12.1567 106.603 12.9327V17.5359ZM96.3649 8.46221H100.309V26.1785H97.2312C97.1196 25.5085 97.0081 24.8187 96.8768 24.0095C96.6668 24.3213 96.5421 24.5203 96.4109 24.7192C95.3871 26.2116 93.9367 26.7224 92.2239 26.4504C90.7604 26.2116 89.881 25.0708 89.6841 23.2003C89.6251 22.6432 89.5988 22.0794 89.5988 21.5222C89.5857 17.3767 89.5988 13.2179 89.5988 9.07242V8.44894H93.5889V9.17192C93.5889 13.1781 93.5758 17.1777 93.602 21.184C93.602 21.7544 93.6611 22.3447 93.7596 22.9151C93.8711 23.4988 94.2911 23.7111 94.8555 23.6713C95.7677 23.5983 96.3977 22.9151 96.3977 21.9998V9.24488C96.3649 8.9862 96.3649 8.74742 96.3649 8.46221ZM69.2086 8.44894H73.1725V9.19845C73.1725 13.1848 73.1593 17.1645 73.1856 21.1375C73.1856 21.7079 73.2381 22.2983 73.3562 22.8554C73.5072 23.5121 73.8878 23.7243 74.5375 23.6381C75.4366 23.5121 75.9813 22.882 75.9879 21.96V9.27141V8.47547H79.932V26.1785H76.8672C76.7557 25.5218 76.6441 24.8453 76.4997 23.9896C76.3029 24.2881 76.1913 24.4606 76.0797 24.6397C75.056 26.1586 73.6187 26.7157 71.8665 26.4438C70.4621 26.2315 69.6024 25.1835 69.3399 23.4656C69.2677 22.9284 69.2152 22.3978 69.2152 21.8605C69.2021 17.5558 69.2021 13.2312 69.2021 8.9265L69.2086 8.44894ZM67.1742 17.9073C67.1611 18.5043 67.1217 19.1012 67.0889 19.6982C66.9379 21.4891 66.8657 24.0294 65.4351 25.3361C64.5229 26.1586 63.3678 26.457 62.1734 26.4968C61.6419 26.5101 61.1037 26.5101 60.5722 26.4371C58.0587 26.0524 56.8905 24.9315 56.4705 22.1391C55.9914 18.9155 55.952 15.6389 56.523 12.4154C57.1136 9.07906 59.1481 7.89842 62.3113 8.1173C65.2645 8.32955 66.5836 10.2862 66.9314 13.072C67.1217 14.6705 67.2136 16.2889 67.1742 17.9073ZM63.1578 17.2971C63.1578 16.1629 63.1841 15.0221 63.1447 13.8879C63.1185 13.2312 63.0331 12.5679 62.8953 11.9179C62.7378 11.1684 62.2653 10.8102 61.6747 10.8235C61.0972 10.8368 60.6903 11.1949 60.4803 11.8914C60.4081 12.1501 60.3293 12.4154 60.3293 12.674C60.3293 14.4516 60.3162 16.2359 60.3031 18.0135C60.29 19.6717 60.0799 21.4095 60.5984 22.9947C60.7559 23.4789 61.1628 23.7442 61.6944 23.7442C62.2128 23.7442 62.5541 23.4855 62.7444 23.0212C62.8953 22.6631 63.0266 22.2717 63.0266 21.887C63.0725 20.3615 63.1578 18.8293 63.1578 17.2971ZM50.6822 13.9608C51.03 12.2429 51.3582 10.5648 51.7191 8.88007C52.1719 6.73767 52.6773 4.59527 53.1235 2.44624C53.2351 1.92225 53.4451 1.79622 53.9373 1.80949C54.9939 1.84929 56.0702 1.82275 57.1989 1.82275C56.8314 3.18912 56.4705 4.48915 56.1161 5.76928C54.9939 9.78877 53.8717 13.8215 52.7626 17.8543C52.6773 18.166 52.6379 18.5043 52.6379 18.8359C52.6248 21.038 52.6379 23.2335 52.6379 25.4356V26.1519H48.7856C48.7725 25.9529 48.7462 25.754 48.7462 25.555C48.7462 24.308 48.6478 23.0544 48.7594 21.8207C49.0415 18.8558 48.1096 16.1297 47.3549 13.3705C46.3574 9.72244 45.3468 6.06113 44.3492 2.41308C44.2967 2.24062 44.277 2.0549 44.2245 1.84265H48.1556C48.9825 5.86877 49.8159 9.89489 50.6822 13.9608ZM126.054 18.5839H119.413C119.485 19.9303 119.511 21.2105 119.649 22.4774C119.748 23.3595 120.227 23.7376 120.981 23.7442C121.769 23.7575 122.228 23.3595 122.412 22.484C122.471 22.1988 122.511 21.9136 122.537 21.6217C122.563 21.363 122.576 21.0845 122.596 20.713C123.718 20.7727 124.814 20.839 125.897 20.8855C126.527 22.7758 125.392 25.2034 123.482 25.9529C121.979 26.5499 120.437 26.5499 118.901 26.0922C117.766 25.754 116.919 25.0244 116.539 23.9034C116.184 22.8554 115.849 21.761 115.777 20.6666C115.58 17.967 115.508 15.2409 115.915 12.5348C115.987 12.0837 116.112 11.6526 116.25 11.2148C116.801 9.4107 118.002 8.30302 119.859 8.1173C120.87 8.01781 121.913 8.0576 122.911 8.23006C124.525 8.51527 125.385 9.68928 125.759 11.2281C125.93 11.9511 126.054 12.6939 126.081 13.4302C126.087 15.1216 126.054 16.7997 126.054 18.5839ZM122.281 16.2558C122.281 14.9226 122.294 13.669 122.268 12.4087C122.268 12.1103 122.156 11.7985 122.045 11.5133C121.822 10.9561 121.356 10.8036 120.798 10.8036C120.24 10.8036 119.886 11.0888 119.748 11.5995C119.328 13.1317 119.466 14.6971 119.479 16.269C120.483 16.2558 121.395 16.2558 122.281 16.2558Z" fill="#0F0F10"/>
<path d="M82.9767 5.073H79.072V1.87598H90.7272V5.0531H86.8487V26.1521H82.9833L82.9767 5.073Z" fill="#0F0F10"/>
</svg>
